<svg width="184" height="55" viewBox="0 0 184 55" fill="none" xmlns="http://www.w3.org/2000/svg">
<g clip-path="url(#clip0_1_597)">
<path d="M46.7323 0H9.14758C4.37165 0 0.5 3.87165 0.5 8.64758V46.2323C0.5 51.0082 4.37165 54.8799 9.14758 54.8799H46.7323C51.5082 54.8799 55.3799 51.0082 55.3799 46.2323V8.64758C55.3799 3.87165 51.5082 0 46.7323 0Z" fill="#5E13F6"/>
<path d="M40.8509 30.6885V45.0531H15.1833V30.6885L27.9777 21.7809L40.8509 30.6885Z" fill="white"/>
<path d="M41.9732 19.533C41.4451 19.8161 40.9783 20.201 40.5997 20.6654C40.2211 21.1298 39.9382 21.6646 39.7672 22.2389L27.9391 14.0526L15.0105 23.0038L13.0327 20.1353L27.9391 9.82526L41.9732 19.533Z" fill="white"/>
<path d="M11.7662 28.0649C10.8704 28.0649 9.99467 27.7992 9.24983 27.3016C8.50499 26.8039 7.92446 26.0965 7.58165 25.2689C7.23884 24.4412 7.14914 23.5306 7.32391 22.652C7.49867 21.7734 7.93004 20.9663 8.56348 20.3329C9.19691 19.6995 10.004 19.2681 10.8825 19.0933C11.7611 18.9186 12.6718 19.0083 13.4995 19.3511C14.3271 19.6939 15.0344 20.2744 15.5321 21.0192C16.0298 21.7641 16.2955 22.6398 16.2955 23.5356C16.2924 24.7359 15.8142 25.8861 14.9654 26.7348C14.1167 27.5836 12.9665 28.0618 11.7662 28.0649ZM11.7662 22.0912C11.4814 22.0909 11.2029 22.1751 10.9659 22.3331C10.729 22.4911 10.5442 22.7159 10.4351 22.979C10.3259 23.242 10.2973 23.5316 10.3528 23.8109C10.4082 24.0903 10.5454 24.3469 10.7468 24.5483C10.9481 24.7497 11.2048 24.8868 11.4841 24.9423C11.7635 24.9978 12.053 24.9691 12.3161 24.86C12.5791 24.7508 12.8039 24.5661 12.9619 24.3291C13.12 24.0922 13.2041 23.8137 13.2038 23.5289C13.2034 23.1477 13.0517 22.7823 12.7822 22.5128C12.5127 22.2433 12.1473 22.0917 11.7662 22.0912Z" fill="white"/>
<path d="M42.8489 20.1386L40.8711 23.0071L39.7673 22.2388C39.9378 21.6639 40.2205 21.1285 40.5991 20.6635C40.9778 20.1985 41.4448 19.8131 41.9732 19.5297L42.8489 20.1386Z" fill="white"/>
<path d="M44.1137 18.9962C43.1363 18.9954 42.1849 19.3108 41.4016 19.8952C40.6182 20.4796 40.0449 21.3018 39.7672 22.2389C39.6422 22.6563 39.5789 23.0898 39.5794 23.5255C39.5794 24.4213 39.845 25.297 40.3427 26.0419C40.8404 26.7867 41.5477 27.3672 42.3754 27.71C43.203 28.0528 44.1137 28.1425 44.9923 27.9678C45.8709 27.793 46.6779 27.3616 47.3113 26.7282C47.9448 26.0948 48.3761 25.2877 48.5509 24.4091C48.7257 23.5305 48.636 22.6198 48.2932 21.7922C47.9504 20.9646 47.3698 20.2572 46.625 19.7595C45.8801 19.2619 45.0045 18.9962 44.1087 18.9962H44.1137ZM44.1137 24.9682C43.8289 24.9685 43.5505 24.8844 43.3136 24.7264C43.0767 24.5685 42.8919 24.3438 42.7827 24.0808C42.6735 23.8179 42.6448 23.5284 42.7001 23.2491C42.7555 22.9698 42.8924 22.7132 43.0937 22.5117C43.2949 22.3103 43.5513 22.173 43.8306 22.1173C44.1098 22.0617 44.3993 22.0901 44.6624 22.199C44.9255 22.3078 45.1504 22.4923 45.3086 22.7291C45.4669 22.9658 45.5513 23.2441 45.5513 23.5289C45.5509 23.9102 45.3993 24.2758 45.1299 24.5455C44.8604 24.8153 44.495 24.9673 44.1137 24.9682Z" fill="white"/>
<path d="M37.3818 41.9178C37.3145 42.0069 37.2301 42.0817 37.1334 42.1378C37.0368 42.1938 36.93 42.23 36.8192 42.2442C36.7084 42.2585 36.5959 42.2504 36.4883 42.2205C36.3807 42.1907 36.2801 42.1397 36.1924 42.0704L26.5501 34.5887C25.9321 35.0498 25.1678 35.2711 24.399 35.2118C23.6302 35.1525 22.909 34.8165 22.3691 34.266C21.8291 33.7156 21.5069 32.9881 21.4623 32.2183C21.4177 31.4485 21.6537 30.6887 22.1265 30.0796C22.5993 29.4705 23.2769 29.0534 24.0337 28.9057C24.7905 28.758 25.5752 28.8897 26.2423 29.2763C26.9095 29.6629 27.4139 30.2782 27.662 31.0083C27.9101 31.7384 27.8852 32.5336 27.5918 33.2467L32.2889 36.8919L33.7986 34.951C33.8718 34.8554 33.9632 34.7752 34.0674 34.715C34.1717 34.6548 34.2869 34.6158 34.4063 34.6002C34.5257 34.5846 34.647 34.5927 34.7632 34.6242C34.8794 34.6556 34.9883 34.7097 35.0836 34.7833L35.8821 35.404C35.9775 35.4773 36.0576 35.5687 36.1177 35.673C36.1777 35.7773 36.2167 35.8924 36.2323 36.0117C36.2479 36.131 36.2398 36.2523 36.2085 36.3685C36.1772 36.4847 36.1233 36.5936 36.0498 36.6889L34.5401 38.6281L34.9964 38.9821L36.5061 37.0429C36.5792 36.9473 36.6704 36.8672 36.7745 36.807C36.8786 36.7468 36.9936 36.7078 37.1129 36.6922C37.2322 36.6766 37.3533 36.6847 37.4694 36.7161C37.5855 36.7475 37.6943 36.8016 37.7894 36.8752L38.5896 37.4941C38.685 37.5675 38.7651 37.6589 38.8252 37.7632C38.8853 37.8675 38.9242 37.9825 38.9398 38.1019C38.9554 38.2212 38.9473 38.3424 38.916 38.4587C38.8847 38.5749 38.8308 38.6838 38.7574 38.7791L37.2476 40.72C37.3354 40.7896 37.4086 40.8758 37.463 40.9738C37.5173 41.0718 37.5517 41.1796 37.5642 41.2909C37.5767 41.4023 37.567 41.515 37.5357 41.6226C37.5044 41.7302 37.4521 41.8305 37.3818 41.9178Z" fill="#5E13F6"/>
<path d="M62.4841 34.5534V21.3245H64.8964V34.5534H62.4841ZM67.7498 24.1528C67.5452 24.1535 67.3425 24.1137 67.1533 24.0357C66.9642 23.9577 66.7923 23.8431 66.6476 23.6984C66.5029 23.5537 66.3883 23.3818 66.3103 23.1926C66.2323 23.0034 66.1924 22.8007 66.1931 22.5961C66.1886 22.3929 66.2268 22.1911 66.3051 22.0036C66.3834 21.8161 66.5001 21.647 66.6477 21.5074C66.7925 21.3638 66.9647 21.2508 67.154 21.175C67.3434 21.0992 67.546 21.0622 67.7498 21.0662C67.9497 21.0642 68.148 21.1022 68.3329 21.1779C68.5179 21.2537 68.6858 21.3657 68.8268 21.5074C68.9739 21.6474 69.0901 21.8165 69.1681 22.004C69.2461 22.1914 69.2841 22.3931 69.2797 22.5961C69.2836 22.801 69.2453 23.0045 69.1674 23.1941C69.0895 23.3836 68.9736 23.5552 68.8268 23.6982C68.6879 23.8436 68.5207 23.9589 68.3354 24.0371C68.1502 24.1153 67.9509 24.1547 67.7498 24.1528Z" fill="black"/>
<path d="M76.8018 34.5534C75.4703 34.5775 74.1509 34.2981 72.9435 33.7365C71.865 33.2314 70.9523 32.4303 70.3115 31.4265C69.6615 30.3824 69.3288 29.172 69.3536 27.9423C69.3336 26.7149 69.6098 25.5008 70.1588 24.4028C70.6635 23.39 71.4342 22.5336 72.3882 21.9251C73.3836 21.3074 74.5369 20.9921 75.708 21.0175C77.0735 21.0175 78.2103 21.3117 79.1184 21.8999C80.0151 22.4738 80.7234 23.2987 81.1549 24.2719C81.6148 25.3221 81.8436 26.4588 81.8259 27.6051C81.8259 27.7964 81.8259 27.9943 81.8125 28.2023C81.8067 28.385 81.7853 28.5668 81.7487 28.7458H71.9001C71.9609 29.4968 72.2402 30.2135 72.7036 30.8075C73.1586 31.3735 73.7528 31.8117 74.4281 32.0791C75.1667 32.3715 75.9554 32.5168 76.7498 32.5068H80.1987V34.5568L76.8018 34.5534ZM71.8699 27.0566H79.4187C79.416 26.7041 79.3811 26.3526 79.3147 26.0065C79.2438 25.6288 79.1219 25.2626 78.9523 24.9178C78.7781 24.5619 78.5456 24.2376 78.2645 23.9582C77.9598 23.6598 77.5981 23.4259 77.201 23.2704C76.7254 23.088 76.2189 22.9996 75.7097 23.0104C75.1576 22.9987 74.6107 23.1189 74.1144 23.361C73.6642 23.5905 73.2649 23.9083 72.9401 24.2954C72.6127 24.6826 72.3581 25.1259 72.1886 25.6039C72.0164 26.0712 71.9091 26.56 71.8699 27.0566Z" fill="black"/>
<path d="M83.3105 34.5534V26.9023C83.2856 25.8202 83.5595 24.7522 84.1022 23.8157C84.6262 22.9366 85.3864 22.2222 86.2964 21.754C87.2917 21.2672 88.385 21.0142 89.4929 21.0142C90.6009 21.0142 91.6942 21.2672 92.6894 21.754C93.5941 22.2248 94.3494 22.9388 94.8702 23.8157C95.4122 24.7525 95.6861 25.8203 95.662 26.9023V34.5534H93.2749V26.9358C93.2935 26.2124 93.1093 25.4983 92.7431 24.8742C92.4067 24.3079 91.9225 23.844 91.3424 23.5322C90.7725 23.225 90.1353 23.0642 89.4879 23.0642C88.8405 23.0642 88.2033 23.225 87.6334 23.5322C87.0541 23.8445 86.5706 24.3084 86.2344 24.8742C85.8655 25.4974 85.6795 26.2118 85.6976 26.9358V34.5618L83.3105 34.5534Z" fill="black"/>
<path d="M96.3615 23.3746V21.3247H105.569V23.3746H96.3615ZM102.401 34.5536C101.224 34.5536 100.304 34.2181 99.6394 33.5471C98.9751 32.876 98.6396 31.9596 98.6329 30.7976V18.0049H101.018V30.6366C100.992 31.1361 101.165 31.6258 101.498 31.9987C101.818 32.3342 102.265 32.502 102.84 32.502H105.512V34.5519L102.401 34.5536Z" fill="black"/>
<path d="M113.189 34.5534C111.857 34.5775 110.538 34.2981 109.33 33.7364C108.252 33.2313 107.339 32.4303 106.698 31.4265C106.053 30.3798 105.724 29.1685 105.752 27.9389C105.733 26.7117 106.008 25.4978 106.556 24.3994C107.062 23.3869 107.833 22.5305 108.787 21.9217C109.782 21.3036 110.935 20.9883 112.107 21.0142C113.472 21.0142 114.609 21.3083 115.517 21.8965C116.413 22.4709 117.121 23.2956 117.554 24.2685C118.013 25.3187 118.242 26.4554 118.225 27.6018C118.225 27.793 118.225 27.991 118.211 28.199C118.206 28.3817 118.184 28.5636 118.146 28.7425H108.29C108.352 29.4932 108.631 30.2096 109.094 30.8041C109.549 31.3704 110.144 31.8086 110.82 32.0757C111.558 32.3681 112.346 32.5134 113.14 32.5035H116.591V34.5534H113.189ZM108.262 27.0566H115.811C115.808 26.7041 115.773 26.3526 115.707 26.0065C115.635 25.6287 115.513 25.2625 115.343 24.9177C115.169 24.5619 114.937 24.2376 114.656 23.9582C114.352 23.6601 113.99 23.4262 113.593 23.2704C113.117 23.0881 112.611 22.9998 112.102 23.0104C111.55 22.9987 111.003 23.1189 110.506 23.361C110.056 23.5907 109.657 23.9084 109.332 24.2954C109.005 24.683 108.751 25.1262 108.581 25.6038C108.408 26.0712 108.301 26.56 108.262 27.0566Z" fill="black"/>
<path d="M125.196 34.8637C123.918 34.8637 122.811 34.5567 121.877 33.9428C120.94 33.3251 120.195 32.4583 119.724 31.4399C119.214 30.3442 118.957 29.1476 118.973 27.9389C118.956 26.7133 119.244 25.5028 119.812 24.4162C120.358 23.3819 121.184 22.5221 122.195 21.9351C123.232 21.3211 124.477 21.0142 125.929 21.0142C127.33 21.0142 128.531 21.3167 129.534 21.9217C130.523 22.5106 131.327 23.3641 131.856 24.386C132.41 25.4598 132.69 26.6536 132.673 27.8618V34.5534H130.247V31.8559H130.195C129.917 32.3843 129.564 32.8692 129.145 33.2952C128.674 33.7739 128.115 34.1567 127.498 34.4225C126.77 34.7299 125.986 34.8803 125.196 34.8637ZM125.82 32.8155C126.631 32.8307 127.428 32.6098 128.115 32.1797C128.787 31.7478 129.326 31.1373 129.67 30.4166C130.051 29.6283 130.242 28.7621 130.229 27.8869C130.243 27.0356 130.061 26.1925 129.697 25.4227C129.358 24.6994 128.816 24.0908 128.136 23.6716C127.456 23.2523 126.669 23.0406 125.871 23.0624C125.025 23.0384 124.19 23.2643 123.472 23.7116C122.809 24.1407 122.279 24.7467 121.942 25.4613C121.594 26.2404 121.412 27.084 121.41 27.9375C121.408 28.791 121.584 29.6356 121.929 30.4166C122.257 31.1305 122.78 31.7371 123.438 32.1663C124.15 32.614 124.98 32.8399 125.82 32.8155Z" fill="black"/>
<path d="M134.716 34.5536V32.5036H141.044C141.421 32.5132 141.793 32.4192 142.121 32.2319C142.411 32.0628 142.649 31.8158 142.807 31.5189C142.961 31.2317 143.042 30.9107 143.042 30.5846C143.043 30.2824 142.972 29.9843 142.834 29.7156C142.689 29.4424 142.468 29.2173 142.198 29.0681C141.884 28.8963 141.53 28.8112 141.173 28.8215H138.502C137.741 28.8386 136.985 28.6927 136.285 28.3937C135.679 28.1291 135.165 27.6914 134.807 27.1356C134.466 26.545 134.284 25.8762 134.279 25.1945C134.274 24.5128 134.445 23.8413 134.777 23.2454C135.119 22.6506 135.615 22.1585 136.213 21.8206C136.81 21.4828 137.487 21.3115 138.174 21.3247H144.268V23.3746H138.407C138.172 23.3626 137.937 23.4003 137.718 23.4852C137.499 23.5702 137.3 23.7006 137.135 23.8678C136.985 24.022 136.866 24.2043 136.786 24.4043C136.706 24.6044 136.666 24.8182 136.669 25.0337C136.667 25.2446 136.709 25.4537 136.792 25.6479C136.874 25.842 136.996 26.0172 137.149 26.1626C137.469 26.483 137.922 26.6424 138.511 26.6424H141.052C141.875 26.6169 142.694 26.772 143.451 27.097C144.067 27.3699 144.583 27.827 144.929 28.4055C145.283 29.0479 145.457 29.7742 145.432 30.5074C145.436 31.2023 145.257 31.886 144.914 32.4902C144.569 33.102 144.074 33.6154 143.475 33.9815C142.83 34.3709 142.087 34.5693 141.334 34.5536H134.716Z" fill="black"/>
<path d="M148.514 39.8176V37.7694H154.997C155.636 37.7694 156.133 37.5793 156.489 37.199C156.856 36.7845 157.047 36.2426 157.02 35.6893V32.7838H156.994C156.463 33.4074 155.792 33.8966 155.036 34.2114C154.187 34.5611 153.27 34.718 152.353 34.6707C151.436 34.6234 150.54 34.3731 149.732 33.9379C148.877 33.4575 148.179 32.7419 147.719 31.8763C147.226 30.9234 146.981 29.862 147.006 28.7896V21.3247H149.418V28.7695C149.402 29.4866 149.581 30.1945 149.936 30.8178C150.264 31.3859 150.745 31.8508 151.324 32.1598C151.893 32.4685 152.531 32.6289 153.179 32.6261C153.835 32.6311 154.482 32.4707 155.059 32.1598C155.635 31.8518 156.118 31.3954 156.458 30.8379C156.824 30.2276 157.008 29.5259 156.99 28.8148V21.3247H159.403V35.8503C159.403 37.0592 159.048 38.0227 158.339 38.7407C157.63 39.4586 156.662 39.8176 155.435 39.8176H148.514Z" fill="black"/>
<path d="M162.441 34.8203C162.104 34.8193 161.774 34.7185 161.495 34.5306C161.215 34.3428 160.997 34.0763 160.868 33.7648C160.74 33.4532 160.707 33.1106 160.773 32.7802C160.839 32.4497 161.001 32.1462 161.239 31.9079C161.477 31.6696 161.781 31.5072 162.111 31.4412C162.442 31.3752 162.785 31.4086 163.096 31.5371C163.408 31.6656 163.674 31.8835 163.862 32.1633C164.05 32.443 164.151 32.7722 164.152 33.1092C164.155 33.4066 164.08 33.6996 163.935 33.959C163.79 34.2184 163.578 34.435 163.323 34.5871C163.056 34.7449 162.751 34.8256 162.441 34.8203Z" fill="black"/>
<path d="M170.974 34.8638C169.695 34.8638 168.588 34.5568 167.654 33.9428C166.717 33.3257 165.971 32.4588 165.5 31.44C164.99 30.3443 164.733 29.1477 164.749 27.939C164.73 26.7141 165.015 25.5036 165.579 24.4162C166.124 23.3787 166.951 22.5159 167.965 21.9268C169.003 21.3128 170.248 21.0059 171.699 21.0059C173.1 21.0059 174.302 21.3084 175.305 21.9134C176.293 22.5029 177.096 23.3563 177.625 24.3777C178.179 25.4515 178.46 26.6453 178.442 27.8535V34.5451H176.03V31.8476H175.98C175.7 32.3757 175.346 32.8605 174.928 33.2869C174.457 33.7657 173.899 34.1485 173.282 34.4142C172.553 34.7251 171.767 34.8784 170.974 34.8638ZM171.596 32.8156C172.407 32.8308 173.204 32.6099 173.891 32.1798C174.564 31.748 175.103 31.1375 175.448 30.4167C175.827 29.628 176.018 28.762 176.005 27.887C176.018 27.0368 175.836 26.1949 175.473 25.4261C175.135 24.7027 174.593 24.094 173.913 23.6746C173.234 23.2553 172.447 23.0437 171.648 23.0658C170.802 23.0417 169.967 23.2675 169.248 23.715C168.585 24.1446 168.055 24.7505 167.718 25.4647C167.369 26.2439 167.188 27.0875 167.186 27.9411C167.184 28.7947 167.361 29.6392 167.706 30.4201C168.034 31.1341 168.558 31.7407 169.216 32.1697C169.928 32.6159 170.756 32.8407 171.596 32.8156Z" fill="black"/>
<path d="M181.893 19.2192C181.512 19.2266 181.141 19.1013 180.843 18.8649C180.545 18.6285 180.338 18.2957 180.259 17.9236C180.179 17.5515 180.231 17.1633 180.407 16.8255C180.582 16.4878 180.869 16.2216 181.219 16.0725C181.57 15.9235 181.961 15.901 182.326 16.0088C182.691 16.1166 183.007 16.3481 183.22 16.6634C183.433 16.9788 183.529 17.3584 183.493 17.7372C183.456 18.116 183.289 18.4704 183.02 18.7394C182.875 18.8921 182.7 19.0135 182.506 19.096C182.312 19.1785 182.104 19.2204 181.893 19.2192ZM180.673 34.5483V21.3245H183.089V34.5534L180.673 34.5483Z" fill="black"/>
</g>
<defs>
<clipPath id="clip0_1_597">
<rect width="183" height="54.8799" fill="white" transform="translate(0.5)"/>
</clipPath>
</defs>
</svg>
