<svg width="103" height="32" viewBox="0 0 103 32" fill="none" xmlns="http://www.w3.org/2000/svg">
<g clip-path="url(#clip0_1_319)">
<path d="M26.3576 0.639587H5.37394C2.70752 0.639587 0.545959 2.80115 0.545959 5.46757V26.4512C0.545959 29.1177 2.70752 31.2792 5.37394 31.2792H26.3576C29.024 31.2792 31.1856 29.1177 31.1856 26.4512V5.46757C31.1856 2.80115 29.024 0.639587 26.3576 0.639587Z" fill="#5E13F6"/>
<path d="M23.0741 17.7731V25.7929H8.74371V17.7731L15.8869 12.7999L23.0741 17.7731Z" fill="white"/>
<path d="M23.7006 11.5448C23.4058 11.7029 23.1452 11.9178 22.9338 12.177C22.7224 12.4363 22.5644 12.7349 22.469 13.0555L15.8653 8.48508L8.64723 13.4826L7.54303 11.8811L15.8653 6.12494L23.7006 11.5448Z" fill="white"/>
<path d="M6.83591 16.3082C6.33578 16.3082 5.84687 16.1599 5.43103 15.8821C5.01518 15.6042 4.69107 15.2093 4.49968 14.7472C4.30829 14.2851 4.25821 13.7767 4.35578 13.2862C4.45335 12.7957 4.69419 12.3451 5.04783 11.9914C5.40148 11.6378 5.85206 11.397 6.34258 11.2994C6.8331 11.2018 7.34155 11.2519 7.80361 11.4433C8.26567 11.6347 8.6606 11.9588 8.93846 12.3746C9.21632 12.7905 9.36463 13.2794 9.36463 13.7795C9.3629 14.4496 9.09593 15.0918 8.62207 15.5657C8.14822 16.0395 7.50604 16.3065 6.83591 16.3082ZM6.83591 12.9731C6.6769 12.9729 6.52141 13.0199 6.38912 13.1082C6.25683 13.1964 6.15369 13.3219 6.09275 13.4688C6.03181 13.6156 6.01582 13.7773 6.0468 13.9332C6.07777 14.0892 6.15433 14.2325 6.26677 14.3449C6.3792 14.4574 6.52247 14.5339 6.67843 14.5649C6.8344 14.5959 6.99605 14.5799 7.14292 14.5189C7.28979 14.458 7.41528 14.3549 7.50351 14.2226C7.59174 14.0903 7.63873 13.9348 7.63855 13.7758C7.6383 13.563 7.55365 13.359 7.40318 13.2085C7.25271 13.058 7.04871 12.9734 6.83591 12.9731Z" fill="white"/>
<path d="M24.1895 11.8829L23.0853 13.4844L22.4691 13.0555C22.5643 12.7345 22.7221 12.4356 22.9335 12.176C23.1449 11.9163 23.4056 11.7012 23.7006 11.5429L24.1895 11.8829Z" fill="white"/>
<path d="M24.8957 11.2452C24.35 11.2448 23.8188 11.4209 23.3815 11.7471C22.9441 12.0734 22.624 12.5324 22.469 13.0556C22.3992 13.2887 22.3639 13.5307 22.3641 13.774C22.3641 14.2741 22.5124 14.763 22.7903 15.1788C23.0682 15.5947 23.4631 15.9188 23.9252 16.1102C24.3872 16.3016 24.8957 16.3517 25.3862 16.2541C25.8767 16.1565 26.3273 15.9157 26.6809 15.562C27.0346 15.2084 27.2754 14.7578 27.373 14.2673C27.4706 13.7768 27.4205 13.2683 27.2291 12.8063C27.0377 12.3442 26.7136 11.9493 26.2977 11.6714C25.8819 11.3935 25.393 11.2452 24.8929 11.2452H24.8957ZM24.8957 14.5794C24.7367 14.5796 24.5812 14.5326 24.449 14.4444C24.3167 14.3562 24.2136 14.2308 24.1526 14.084C24.0916 13.9372 24.0756 13.7756 24.1065 13.6196C24.1374 13.4637 24.2138 13.3204 24.3262 13.208C24.4385 13.0955 24.5817 13.0189 24.7376 12.9878C24.8935 12.9567 25.0551 12.9725 25.202 13.0333C25.3489 13.0941 25.4745 13.1971 25.5628 13.3293C25.6511 13.4615 25.6983 13.6169 25.6983 13.7758C25.698 13.9887 25.6134 14.1928 25.463 14.3434C25.3126 14.4941 25.1085 14.5789 24.8957 14.5794Z" fill="white"/>
<path d="M21.1372 24.0423C21.0996 24.0921 21.0525 24.1338 20.9986 24.1651C20.9446 24.1964 20.885 24.2166 20.8231 24.2246C20.7613 24.2325 20.6985 24.228 20.6384 24.2114C20.5783 24.1947 20.5221 24.1662 20.4732 24.1275L15.0898 19.9505C14.7448 20.2079 14.3181 20.3315 13.8889 20.2984C13.4597 20.2652 13.057 20.0776 12.7555 19.7703C12.4541 19.463 12.2742 19.0568 12.2493 18.6271C12.2244 18.1973 12.3562 17.7731 12.6201 17.433C12.8841 17.093 13.2624 16.8601 13.6849 16.7776C14.1075 16.6952 14.5455 16.7687 14.918 16.9845C15.2905 17.2004 15.5721 17.5439 15.7106 17.9515C15.8491 18.3591 15.8352 18.8031 15.6714 19.2012L18.2938 21.2364L19.1367 20.1528C19.1776 20.0994 19.2286 20.0546 19.2868 20.021C19.345 19.9874 19.4093 19.9656 19.476 19.9569C19.5426 19.9482 19.6103 19.9527 19.6752 19.9703C19.7401 19.9878 19.8009 20.018 19.8541 20.0591L20.2999 20.4056C20.3532 20.4466 20.3979 20.4976 20.4314 20.5558C20.465 20.614 20.4867 20.6783 20.4954 20.7449C20.5041 20.8116 20.4996 20.8792 20.4821 20.9441C20.4647 21.009 20.4346 21.0698 20.3936 21.123L19.5507 22.2057L19.8054 22.4033L20.6483 21.3207C20.6891 21.2673 20.74 21.2225 20.7982 21.1889C20.8563 21.1553 20.9205 21.1336 20.9871 21.1249C21.0537 21.1162 21.1213 21.1207 21.1861 21.1382C21.251 21.1557 21.3117 21.1859 21.3648 21.227L21.8115 21.5726C21.8648 21.6135 21.9095 21.6646 21.9431 21.7228C21.9766 21.781 21.9983 21.8453 22.007 21.9119C22.0157 21.9785 22.0112 22.0462 21.9937 22.1111C21.9763 22.176 21.9462 22.2368 21.9052 22.29L21.0623 23.3736C21.1113 23.4124 21.1522 23.4606 21.1825 23.5153C21.2129 23.57 21.2321 23.6302 21.239 23.6924C21.246 23.7545 21.2406 23.8175 21.2231 23.8775C21.2056 23.9376 21.1764 23.9936 21.1372 24.0423Z" fill="#5E13F6"/>
<path d="M35.1519 19.9308V12.5451H36.4987V19.9308H35.1519ZM38.0918 14.1241C37.9775 14.1245 37.8644 14.1023 37.7587 14.0587C37.6531 14.0152 37.5572 13.9512 37.4764 13.8704C37.3956 13.7896 37.3316 13.6937 37.2881 13.588C37.2445 13.4824 37.2223 13.3692 37.2227 13.255C37.2201 13.1416 37.2414 13.0289 37.2852 12.9242C37.3289 12.8195 37.394 12.7251 37.4765 12.6472C37.5573 12.567 37.6534 12.5039 37.7591 12.4616C37.8648 12.4193 37.978 12.3986 38.0918 12.4009C38.2034 12.3997 38.3141 12.4209 38.4173 12.4632C38.5206 12.5055 38.6143 12.5681 38.6931 12.6472C38.7752 12.7253 38.8401 12.8197 38.8836 12.9244C38.9272 13.0291 38.9484 13.1417 38.9459 13.255C38.9481 13.3694 38.9267 13.483 38.8832 13.5889C38.8397 13.6947 38.775 13.7905 38.6931 13.8703C38.6155 13.9515 38.5221 14.0159 38.4187 14.0595C38.3153 14.1032 38.204 14.1252 38.0918 14.1241Z" fill="black"/>
<path d="M43.1455 19.9308C42.4022 19.9442 41.6655 19.7883 40.9914 19.4747C40.3893 19.1927 39.8797 18.7454 39.522 18.185C39.1591 17.6021 38.9733 16.9263 38.9872 16.2398C38.976 15.5545 39.1302 14.8767 39.4367 14.2636C39.7185 13.6982 40.1488 13.2201 40.6814 12.8803C41.2371 12.5355 41.881 12.3595 42.5349 12.3737C43.2972 12.3737 43.9319 12.5379 44.4389 12.8663C44.9396 13.1867 45.335 13.6472 45.5759 14.1906C45.8326 14.7769 45.9604 15.4115 45.9505 16.0515C45.9505 16.1583 45.9505 16.2688 45.943 16.385C45.9398 16.4869 45.9279 16.5884 45.9074 16.6884H40.4089C40.4428 17.1076 40.5988 17.5078 40.8575 17.8394C41.1115 18.1554 41.4433 18.4001 41.8203 18.5494C42.2327 18.7126 42.673 18.7937 43.1165 18.7882H45.042V19.9327L43.1455 19.9308ZM40.392 15.7453H44.6065C44.605 15.5485 44.5856 15.3523 44.5485 15.159C44.5089 14.9482 44.4408 14.7437 44.3462 14.5512C44.2489 14.3525 44.1191 14.1714 43.9622 14.0155C43.7921 13.8489 43.5901 13.7183 43.3684 13.6315C43.1029 13.5296 42.8201 13.4803 42.5358 13.4863C42.2276 13.4798 41.9222 13.5469 41.6451 13.682C41.3938 13.8102 41.1708 13.9876 40.9895 14.2037C40.8068 14.4199 40.6646 14.6674 40.57 14.9342C40.4738 15.1952 40.4139 15.4681 40.392 15.7453Z" fill="black"/>
<path d="M46.7794 19.9308V15.6591C46.7655 15.055 46.9184 14.4587 47.2214 13.9358C47.5139 13.445 47.9384 13.0462 48.4465 12.7848C49.0021 12.513 49.6125 12.3718 50.2311 12.3718C50.8496 12.3718 51.46 12.513 52.0157 12.7848C52.5208 13.0477 52.9425 13.4463 53.2332 13.9358C53.5358 14.4589 53.6887 15.055 53.6753 15.6591V19.9308H52.3425V15.6779C52.3529 15.274 52.2501 14.8753 52.0457 14.5268C51.8578 14.2107 51.5875 13.9517 51.2636 13.7776C50.9455 13.6061 50.5897 13.5163 50.2283 13.5163C49.8668 13.5163 49.511 13.6061 49.1929 13.7776C48.8695 13.952 48.5995 14.2109 48.4118 14.5268C48.2059 14.8748 48.102 15.2736 48.1121 15.6779V19.9355L46.7794 19.9308Z" fill="black"/>
<path d="M54.0658 13.6896V12.5452H59.2066V13.6896H54.0658ZM57.4374 19.9309C56.7806 19.9309 56.2667 19.7436 55.8958 19.369C55.525 18.9943 55.3377 18.4827 55.3339 17.8339V10.6917H56.6657V17.744C56.6511 18.0229 56.7474 18.2963 56.9335 18.5045C57.1121 18.6918 57.3619 18.7855 57.6828 18.7855H59.1747V19.93L57.4374 19.9309Z" fill="black"/>
<path d="M63.4605 19.9308C62.7171 19.9442 61.9805 19.7883 61.3064 19.4747C60.7043 19.1927 60.1947 18.7454 59.8369 18.185C59.4764 17.6007 59.2929 16.9244 59.3087 16.2379C59.2977 15.5528 59.4516 14.875 59.7573 14.2618C60.0397 13.6965 60.4702 13.2184 61.0029 12.8785C61.5585 12.5334 62.2025 12.3573 62.8564 12.3718C63.6187 12.3718 64.2534 12.536 64.7604 12.8644C65.2608 13.1851 65.6562 13.6455 65.8974 14.1887C66.1541 14.775 66.2819 15.4097 66.272 16.0497C66.272 16.1564 66.272 16.267 66.2645 16.3831C66.2615 16.4851 66.2492 16.5867 66.228 16.6865H60.7257C60.7602 17.1057 60.9161 17.5056 61.1743 17.8376C61.4286 18.1537 61.7607 18.3983 62.138 18.5475C62.5501 18.7107 62.9901 18.7919 63.4333 18.7863H65.3598V19.9308H63.4605ZM60.7098 15.7453H64.9243C64.9228 15.5485 64.9033 15.3523 64.8662 15.159C64.8263 14.9481 64.758 14.7436 64.663 14.5512C64.5661 14.3525 64.4366 14.1714 64.28 14.0155C64.1097 13.849 63.9078 13.7185 63.6862 13.6315C63.4206 13.5297 63.1379 13.4804 62.8536 13.4863C62.5453 13.4798 62.24 13.5469 61.9629 13.682C61.7116 13.8103 61.4887 13.9877 61.3073 14.2037C61.1248 14.4201 60.9827 14.6676 60.8877 14.9342C60.7916 15.1952 60.7317 15.4681 60.7098 15.7453Z" fill="black"/>
<path d="M70.1644 20.104C69.4508 20.104 68.8329 19.9326 68.311 19.5899C67.7881 19.245 67.372 18.7611 67.1094 18.1925C66.8244 17.5808 66.681 16.9127 66.6898 16.2379C66.6805 15.5536 66.8414 14.8778 67.1581 14.2711C67.4629 13.6937 67.9241 13.2137 68.4889 12.8859C69.0677 12.5432 69.7626 12.3718 70.5737 12.3718C71.3554 12.3718 72.0263 12.5407 72.5864 12.8784C73.1383 13.2072 73.5872 13.6838 73.8826 14.2543C74.1917 14.8538 74.3484 15.5203 74.3387 16.1948V19.9308H72.9844V18.4248H72.9554C72.8001 18.7197 72.6026 18.9905 72.3691 19.2283C72.106 19.4956 71.7937 19.7093 71.4494 19.8577C71.0432 20.0293 70.6053 20.1133 70.1644 20.104ZM70.5128 18.9605C70.9653 18.969 71.4105 18.8457 71.794 18.6055C72.1692 18.3644 72.4699 18.0236 72.6622 17.6212C72.8746 17.1811 72.9814 16.6975 72.9741 16.2089C72.9819 15.7336 72.8803 15.2628 72.6772 14.833C72.4881 14.4293 72.1852 14.0895 71.8057 13.8554C71.4262 13.6213 70.9866 13.5031 70.5409 13.5153C70.0686 13.5019 69.6028 13.628 69.2016 13.8778C68.8314 14.1173 68.5355 14.4557 68.3475 14.8546C68.153 15.2896 68.0518 15.7606 68.0506 16.2371C68.0493 16.7136 68.1479 17.1851 68.34 17.6212C68.5232 18.0198 68.8155 18.3584 69.1829 18.598C69.5805 18.848 70.0434 18.9741 70.5128 18.9605Z" fill="black"/>
<path d="M75.4794 19.9309V18.7864H79.0121C79.2226 18.7917 79.4306 18.7392 79.6134 18.6347C79.7756 18.5402 79.9083 18.4024 79.9964 18.2366C80.0826 18.0763 80.1277 17.897 80.1275 17.715C80.1285 17.5463 80.0886 17.3798 80.0114 17.2298C79.9309 17.0773 79.8075 16.9516 79.6564 16.8683C79.4813 16.7724 79.2838 16.7249 79.0842 16.7306H77.5932C77.1682 16.7402 76.746 16.6587 76.355 16.4918C76.0168 16.3441 75.7298 16.0997 75.5299 15.7894C75.3398 15.4596 75.2383 15.0863 75.2354 14.7057C75.2324 14.325 75.3281 13.9501 75.5131 13.6175C75.7043 13.2854 75.9811 13.0107 76.3147 12.822C76.6483 12.6334 77.0265 12.5378 77.4096 12.5451H80.8121V13.6896H77.5398C77.4087 13.6829 77.2777 13.7039 77.1554 13.7514C77.0331 13.7988 76.9221 13.8716 76.8299 13.965C76.7459 14.0511 76.6796 14.1528 76.635 14.2645C76.5903 14.3762 76.5681 14.4956 76.5695 14.6159C76.5687 14.7337 76.5921 14.8504 76.6381 14.9588C76.6842 15.0672 76.752 15.165 76.8374 15.2462C77.0163 15.4251 77.2691 15.514 77.5979 15.514H79.0168C79.4764 15.4998 79.9335 15.5864 80.356 15.7678C80.7 15.9202 80.9882 16.1754 81.1812 16.4984C81.3789 16.857 81.476 17.2625 81.4621 17.6719C81.4641 18.0598 81.3644 18.4416 81.1727 18.7789C80.9803 19.1205 80.7037 19.4071 80.3692 19.6115C80.0091 19.8289 79.5946 19.9396 79.1741 19.9309H75.4794Z" fill="black"/>
<path d="M83.1826 22.8698V21.7263H86.8024C87.1589 21.7263 87.4365 21.6201 87.635 21.4079C87.8402 21.1764 87.9468 20.8739 87.9319 20.565V18.9428H87.9169C87.6206 19.291 87.246 19.5641 86.8239 19.7398C86.3498 19.9351 85.8382 20.0227 85.3261 19.9963C84.814 19.9699 84.3141 19.8302 83.8625 19.5872C83.3855 19.3189 82.9955 18.9194 82.7387 18.4361C82.4636 17.9042 82.3267 17.3116 82.3406 16.7129V12.5452H83.6874V16.7016C83.6786 17.102 83.7786 17.4972 83.9768 17.8452C84.1599 18.1623 84.4283 18.4219 84.7513 18.5944C85.0693 18.7668 85.4255 18.8563 85.7872 18.8548C86.1534 18.8576 86.5145 18.768 86.8371 18.5944C87.1586 18.4225 87.4283 18.1677 87.6182 17.8564C87.8222 17.5157 87.9251 17.1239 87.915 16.7269V12.5452H89.2618V20.6549C89.2618 21.3298 89.0639 21.8677 88.668 22.2686C88.2722 22.6694 87.7318 22.8698 87.0468 22.8698H83.1826Z" fill="black"/>
<path d="M90.958 20.0798C90.7698 20.0792 90.5861 20.0229 90.4299 19.9181C90.2737 19.8132 90.152 19.6644 90.0803 19.4905C90.0085 19.3166 89.9899 19.1253 90.0267 18.9408C90.0636 18.7563 90.1542 18.5868 90.2873 18.4538C90.4203 18.3207 90.5898 18.2301 90.7743 18.1932C90.9588 18.1564 91.1501 18.175 91.324 18.2468C91.4979 18.3185 91.6467 18.4402 91.7516 18.5964C91.8564 18.7526 91.9127 18.9363 91.9133 19.1245C91.9153 19.2905 91.8736 19.4541 91.7924 19.5989C91.7112 19.7438 91.5933 19.8647 91.4506 19.9496C91.3016 20.0377 91.1311 20.0827 90.958 20.0798Z" fill="black"/>
<path d="M95.7222 20.1041C95.008 20.1041 94.3901 19.9327 93.8688 19.5899C93.3455 19.2454 92.9289 18.7613 92.6662 18.1925C92.3813 17.5808 92.2379 16.9127 92.2467 16.2379C92.236 15.5541 92.3953 14.8782 92.7103 14.2712C93.0147 13.6919 93.4763 13.2102 94.042 12.8813C94.6221 12.5385 95.317 12.3671 96.1268 12.3671C96.9092 12.3671 97.5804 12.536 98.1404 12.8738C98.6918 13.2029 99.1404 13.6794 99.4357 14.2496C99.7449 14.8492 99.9015 15.5157 99.8918 16.1902V19.9261H98.545V18.4201H98.5169C98.361 18.7149 98.1632 18.9856 97.9297 19.2237C97.6671 19.491 97.3551 19.7047 97.011 19.8531C96.6039 20.0267 96.1647 20.1122 95.7222 20.1041ZM96.0697 18.9605C96.5222 18.969 96.9673 18.8457 97.3509 18.6056C97.7264 18.3645 98.0273 18.0237 98.22 17.6212C98.4317 17.1809 98.5382 16.6974 98.531 16.2089C98.5385 15.7342 98.4369 15.2642 98.2341 14.835C98.0453 14.4311 97.7426 14.0912 97.3633 13.8571C96.9839 13.623 96.5444 13.5049 96.0987 13.5172C95.6261 13.5037 95.1599 13.6298 94.7585 13.8797C94.3885 14.1195 94.0927 14.4578 93.9044 14.8565C93.7097 15.2915 93.6086 15.7625 93.6075 16.2391C93.6063 16.7157 93.7053 17.1872 93.8978 17.6231C94.0809 18.0218 94.3732 18.3604 94.7407 18.5999C95.1383 18.849 95.6008 18.9745 96.0697 18.9605Z" fill="black"/>
<path d="M101.818 11.3697C101.606 11.3738 101.399 11.3038 101.232 11.1718C101.066 11.0399 100.95 10.8541 100.906 10.6463C100.861 10.4386 100.891 10.2218 100.989 10.0333C101.086 9.84469 101.247 9.69607 101.442 9.61287C101.638 9.52968 101.856 9.5171 102.06 9.57729C102.264 9.63748 102.44 9.7667 102.559 9.94277C102.678 10.1188 102.732 10.3308 102.711 10.5423C102.691 10.7538 102.598 10.9516 102.448 11.1018C102.367 11.1871 102.269 11.2548 102.161 11.3009C102.052 11.3469 101.936 11.3703 101.818 11.3697ZM101.137 19.928V12.545H102.486V19.9308L101.137 19.928Z" fill="black"/>
</g>
<defs>
<clipPath id="clip0_1_319">
<rect width="102.17" height="30.6396" fill="white" transform="translate(0.545959 0.639587)"/>
</clipPath>
</defs>
</svg>
